<svg xmlns="http://www.w3.org/2000/svg" width="640" height="200" viewBox="0 0 640 200"><g><title>Layer 1</title><rect id="svg_1" width="642" height="201.5" x="-1" y="-1" fill="#1a1a1a" stroke="#000" stroke-width="0"/><g id="b"><rect id="svg_3" width="114" height="97" x="371.999" y="51" fill="#ddd" stroke="#000" stroke-opacity="null" stroke-width="0" rx="4"/><ellipse id="svg_5" cx="428.999" cy="99.5" fill="red" stroke="#000" stroke-opacity="null" stroke-width="0" rx="44.5" ry="43.5"/></g><g id="a"><rect id="svg_9" width="114" height="97" x="505.999" y="51" fill="#ddd" stroke="#000" stroke-opacity="null" stroke-width="0" rx="4"/><ellipse id="svg_10" cx="562.999" cy="99.5" fill="red" stroke="#000" stroke-opacity="null" stroke-width="0" rx="44.5" ry="43.5"/></g><g id="svg_39"><rect id="svg_38" width="128.483" height="45.994" x="222.263" y="76.503" fill="#ddd" stroke="#000" stroke-opacity="null" stroke-width="0" rx="6"/><rect id="select" width="51.493" height="21.497" x="228.012" y="89.251" fill="#000" stroke="#000" stroke-opacity="null" stroke-width="0" rx="8"/><rect id="start" width="51.493" height="21.497" x="292.504" y="89.251" fill="#000" stroke="#000" stroke-opacity="null" stroke-width="0" rx="8"/></g><text id="svg_42" x="298.503" y="72.254" fill="red" stroke="#fff" stroke-opacity="null" stroke-width="0" font-family="Helvetica, Arial, sans-serif" font-size="12" font-weight="bold" text-anchor="left" xml:space="preserve">START</text><text id="svg_44" x="229.512" y="72.254" fill="red" stroke="#fff" stroke-opacity="null" stroke-width="0" font-family="Helvetica, Arial, sans-serif" font-size="12" font-weight="bold" text-anchor="left" xml:space="preserve">SELECT</text><text id="svg_45" x="470.48" y="169.741" fill="red" fill-opacity="null" stroke="#000" stroke-opacity="null" stroke-width="0" font-family="Helvetica, Arial, sans-serif" font-size="19" font-weight="bold" text-anchor="left" xml:space="preserve">B</text><text id="svg_46" x="607.962" y="170.241" fill="red" fill-opacity="null" stroke="#000" stroke-opacity="null" stroke-width="0" font-family="Helvetica, Arial, sans-serif" font-size="19" font-weight="bold" text-anchor="left" xml:space="preserve">A</text><g id="svg_47"><rect id="upleft" width="67" height="66.5" x="-1" y="-.241" fill="#1a1a1a" stroke="#000" stroke-width="0"/><rect id="up" width="66" height="69.999" x="65.991" y=".759" fill="#000" stroke="#fff" stroke-width="2" rx="4"/><rect id="upright" width="66" height="66" x="131.983" y="-.241" fill="#1a1a1a" stroke="#000" stroke-width="0"/><rect id="downleft" width="67" height="66" x="-.5" y="133.741" fill="#1a1a1a" stroke="#000" stroke-width="0"/><rect id="down" width="66" height="68" x="65.991" y="130.742" fill="#000" stroke="#fff" stroke-width="2" rx="4"/><rect id="downright" width="66" height="66" x="132.483" y="132.241" fill="#1a1a1a" stroke="#000" stroke-width="0"/><rect id="left" width="69.5" height="66" x=".5" y="66.75" fill="#000" stroke="#fff" stroke-width="2" rx="4"/><rect id="right" width="69.5" height="66" x="128.483" y="66.75" fill="#000" stroke="#fff" stroke-width="2" rx="4"/><rect id="middle" width="66" height="67" x="66.491" y="66.25" fill="#000" stroke="#000" stroke-opacity="null" stroke-width="0"/><text xmlns="http://www.w3.org/2000/svg" id="player" x="449.003" y="28.498" fill="red" fill-opacity="null" stroke="#fff" stroke-opacity="null" stroke-width="0" font-family="Helvetica, Arial, sans-serif" font-size="19" font-weight="bold" text-anchor="left" xml:space="preserve">PLAYER 0</text></g></g></svg>